<?xml version="1.0" encoding="UTF-8"?>
<svg id="Layer_1" data-name="Layer 1" xmlns="http://www.w3.org/2000/svg" width="105" height="105" xmlns:xlink="http://www.w3.org/1999/xlink" viewBox="0 0 105 105">
  <defs>
    <linearGradient id="linear-gradient" x1="26.45964" y1="26.62766" x2="72.9275" y2="73.09552" gradientUnits="userSpaceOnUse">
      <stop offset=".27698" stop-color="#fdb60d"/>
      <stop offset=".91425" stop-color="#dd1265"/>
    </linearGradient>
  </defs>
  <rect width="105" height="105" fill="none" stroke-width="0"/>
  <path d="m22.50001,44.79026l6.30561,6.00804,12.42271-5.65783.24996,7.33228,14.74788-3.74946-3.74946,14.99784,7.66556.08332-5.94053,12.38996,6.00825,6.30589h-.00002s22.29-.00003,22.29-.00003h.00002s-9.55967-10.03326-9.55967-10.03326l9.55933-19.96709-11.27564-3.94328,11.10811-25.88881-25.85599,11.39089-3.97603-11.55873-19.96714,9.55963-10.03296-9.55931v22.28993Zm26.95512,26.54478l-6.16179-2.72859,1.69251-8.60388-8.59227,1.70415-2.72857-6.16186-6.28642,2.42766-4.87857-4.64826v29.17608s29.17605-.00003,29.17605-.00003l-4.64859-4.8789,2.42766-6.28637Z" fill="url(#linear-gradient)" stroke-width="0"/>
</svg>