<?xml version="1.0" encoding="UTF-8"?>
<svg xmlns="http://www.w3.org/2000/svg" xmlns:xlink="http://www.w3.org/1999/xlink" width="16px" height="16px" viewBox="0 0 16 16" version="1.1">
<g id="surface1">
<path style=" stroke:none;fill-rule:nonzero;fill:rgb(25.098039%,16.078431%,16.078431%);fill-opacity:1;" d="M 4.664062 1.601562 C 4.238281 1.601562 3.832031 1.769531 3.53125 2.070312 L 1.269531 4.332031 C 0.96875 4.632812 0.800781 5.039062 0.800781 5.460938 L 0.800781 8.800781 C 0.800781 9.683594 1.515625 10.398438 2.398438 10.398438 L 5.601562 10.398438 L 5.601562 12.800781 C 5.601562 13.683594 6.316406 14.398438 7.199219 14.398438 L 7.289062 14.398438 C 7.742188 14.398438 8.171875 14.207031 8.476562 13.871094 L 11.601562 10.398438 L 13.601562 10.398438 C 14.484375 10.398438 15.199219 9.683594 15.199219 8.800781 L 15.199219 3.199219 C 15.199219 2.316406 14.484375 1.601562 13.601562 1.601562 Z M 4.664062 1.601562 "/>
<path style="fill:none;stroke-width:1.5;stroke-linecap:butt;stroke-linejoin:miter;stroke:rgb(85.882353%,36.078431%,36.078431%);stroke-opacity:1;stroke-miterlimit:4;" d="M 18.251953 11.000977 C 18.251953 11.689453 17.69043 12.250977 17.001953 12.250977 L 13.999023 12.250977 C 13.862305 12.250977 13.75 12.138672 13.75 12.001953 L 13.75 2.998047 C 13.75 2.861328 13.862305 2.749023 13.999023 2.749023 L 17.001953 2.749023 C 17.69043 2.749023 18.251953 3.310547 18.251953 3.999023 Z M 18.251953 11.000977 " transform="matrix(0.8,0,0,0.8,0,0)"/>
<path style="fill:none;stroke-width:1.5;stroke-linecap:butt;stroke-linejoin:miter;stroke:rgb(85.882353%,36.078431%,36.078431%);stroke-opacity:1;stroke-miterlimit:4;" d="M 5.830078 2.749023 L 13.75 2.749023 L 13.75 12.709961 L 10.039062 16.835938 C 9.799805 17.099609 9.462891 17.250977 9.111328 17.250977 L 8.999023 17.250977 C 8.310547 17.250977 7.749023 16.689453 7.749023 16.000977 L 7.749023 12.250977 L 2.998047 12.250977 C 2.30957 12.250977 1.748047 11.689453 1.748047 11.000977 L 1.748047 6.826172 C 1.748047 6.499023 1.879883 6.176758 2.114258 5.942383 L 4.946289 3.115234 C 5.180664 2.880859 5.498047 2.749023 5.830078 2.749023 Z M 5.830078 2.749023 " transform="matrix(0.8,0,0,0.8,0,0)"/>
</g>
</svg>
