<?xml version="1.0" encoding="UTF-8"?>
<svg xmlns="http://www.w3.org/2000/svg" xmlns:xlink="http://www.w3.org/1999/xlink" width="16px" height="16px" viewBox="0 0 16 16" version="1.1">
<g id="surface1">
<path style=" stroke:none;fill-rule:nonzero;fill:rgb(14.509804%,21.176471%,15.294118%);fill-opacity:1;" d="M 11.335938 14.398438 C 11.761719 14.398438 12.167969 14.230469 12.46875 13.929688 L 14.730469 11.667969 C 15.03125 11.367188 15.199219 10.960938 15.199219 10.539062 L 15.199219 7.199219 C 15.199219 6.316406 14.484375 5.601562 13.601562 5.601562 L 10.398438 5.601562 L 10.398438 3.199219 C 10.398438 2.316406 9.683594 1.601562 8.800781 1.601562 L 8.710938 1.601562 C 8.257812 1.601562 7.828125 1.792969 7.523438 2.128906 L 4.398438 5.601562 L 2.398438 5.601562 C 1.515625 5.601562 0.800781 6.316406 0.800781 7.199219 L 0.800781 12.800781 C 0.800781 13.683594 1.515625 14.398438 2.398438 14.398438 Z M 11.335938 14.398438 "/>
<path style="fill:none;stroke-width:1.5;stroke-linecap:butt;stroke-linejoin:miter;stroke:rgb(37.254902%,67.843137%,39.607843%);stroke-opacity:1;stroke-miterlimit:4;" d="M 1.748047 8.999023 C 1.748047 8.310547 2.30957 7.749023 2.998047 7.749023 L 6.000977 7.749023 C 6.137695 7.749023 6.25 7.861328 6.25 7.998047 L 6.25 17.001953 C 6.25 17.138672 6.137695 17.250977 6.000977 17.250977 L 2.998047 17.250977 C 2.30957 17.250977 1.748047 16.689453 1.748047 16.000977 Z M 1.748047 8.999023 " transform="matrix(0.8,0,0,0.8,0,0)"/>
<path style="fill:none;stroke-width:1.5;stroke-linecap:butt;stroke-linejoin:miter;stroke:rgb(37.254902%,67.843137%,39.607843%);stroke-opacity:1;stroke-miterlimit:4;" d="M 14.169922 17.250977 L 6.25 17.250977 L 6.25 7.290039 L 9.960938 3.164062 C 10.200195 2.900391 10.537109 2.749023 10.888672 2.749023 L 11.000977 2.749023 C 11.689453 2.749023 12.250977 3.310547 12.250977 3.999023 L 12.250977 7.749023 L 17.001953 7.749023 C 17.69043 7.749023 18.251953 8.310547 18.251953 8.999023 L 18.251953 13.173828 C 18.251953 13.500977 18.120117 13.823242 17.885742 14.057617 L 15.053711 16.884766 C 14.819336 17.119141 14.501953 17.250977 14.169922 17.250977 Z M 14.169922 17.250977 " transform="matrix(0.8,0,0,0.8,0,0)"/>
</g>
</svg>
