<svg width="16" height="16" viewBox="0 0 16 16" fill="none" xmlns="http://www.w3.org/2000/svg">
<mask id="path-1-inside-1_11156_8560" fill="white">
<path d="M12.0881 11.9933L14 14L7.5 14H2V8.5L2 2.00006L4.00659 3.91191L8.00002 2L8.79523 4.31173L13.9664 2.03357L11.7448 7.2113L13.9999 7.99995L12.0881 11.9933Z"/>
</mask>
<path d="M5 7.5H5.5V6.80629L4.84189 7.02566L5 7.5ZM5 9H4.5V9.6099L5.09806 9.49029L5 9ZM7.5 8.5L7.99029 8.59806L8.13738 7.86262L7.40194 8.00971L7.5 8.5ZM7 11L6.50971 10.9019L6.3901 11.5H7V11ZM8.5 11L8.97434 11.1581L9.19371 10.5H8.5V11ZM4.5 7.5V9H5.5V7.5H4.5ZM5.09806 9.49029L7.59806 8.99029L7.40194 8.00971L4.90194 8.50971L5.09806 9.49029ZM7.00971 8.40194L6.50971 10.9019L7.49029 11.0981L7.99029 8.59806L7.00971 8.40194ZM7 11.5H8.5V10.5H7V11.5ZM2.15812 8.97434L5.15811 7.97434L4.84189 7.02566L1.84189 8.02566L2.15812 8.97434ZM8.02566 10.8419L7.02566 13.8419L7.97434 14.1581L8.97434 11.1581L8.02566 10.8419ZM14 14L14 15L16.334 15L14.724 13.3102L14 14ZM12.0881 11.9933L11.1861 11.5615L10.8882 12.1837L11.3641 12.6832L12.0881 11.9933ZM13.9999 7.99995L14.9019 8.43177L15.3841 7.42462L14.33 7.05601L13.9999 7.99995ZM11.7448 7.2113L10.8258 6.81699L10.4034 7.80157L11.4147 8.15524L11.7448 7.2113ZM13.9664 2.03357L14.8854 2.42788L15.8864 0.0949935L13.5633 1.11844L13.9664 2.03357ZM8.79523 4.31173L7.84961 4.63701L8.20331 5.66524L9.19839 5.22686L8.79523 4.31173ZM8.00002 2L8.94564 1.67472L8.58055 0.613365L7.5682 1.09804L8.00002 2ZM4.00659 3.91191L3.31678 4.63591L3.81622 5.11176L4.43842 4.81387L4.00659 3.91191ZM2 2.00006L2.68981 1.27607L0.999999 -0.333951L1 2.00007L2 2.00006ZM2 8.5H3V8.5L2 8.5ZM2 14H1V15H2V14ZM7.5 14V15H7.5L7.5 14ZM14.724 13.3102L12.8121 11.3035L11.3641 12.6832L13.276 14.6898L14.724 13.3102ZM12.99 12.4252L14.9019 8.43177L13.098 7.56813L11.1861 11.5615L12.99 12.4252ZM14.33 7.05601L12.0749 6.26736L11.4147 8.15524L13.6698 8.9439L14.33 7.05601ZM12.6638 7.60561L14.8854 2.42788L13.0475 1.63926L10.8258 6.81699L12.6638 7.60561ZM13.5633 1.11844L8.39207 3.3966L9.19839 5.22686L14.3696 2.9487L13.5633 1.11844ZM9.74085 3.98645L8.94564 1.67472L7.05441 2.32528L7.84961 4.63701L9.74085 3.98645ZM7.5682 1.09804L3.57477 3.00996L4.43842 4.81387L8.43185 2.90196L7.5682 1.09804ZM4.6964 3.18792L2.68981 1.27607L1.31019 2.72406L3.31678 4.63591L4.6964 3.18792ZM1 2.00007L1 8.5L3 8.5L3 2.00006L1 2.00007ZM1 8.5V14H3V8.5H1ZM2 15H7.5V13H2V15ZM7.5 15L14 15L14 13L7.5 13L7.5 15Z" fill="#CED0D6" mask="url(#path-1-inside-1_11156_8560)"/>
</svg>
