<svg width="20" height="20" viewBox="0 0 20 20" fill="none" xmlns="http://www.w3.org/2000/svg">
<mask id="path-1-inside-1_11156_8563" fill="white">
<path d="M15.5 15.5L18 18L9.5 18H2V10.5L2 2.00009L4.5 4.5L10 2L11 5L17.9552 2.04476L15 9L18 10L15.5 15.5Z"/>
</mask>
<path d="M6 9.5H6.75V8.53942L5.8181 8.77239L6 9.5ZM6 11.5H5.25V12.4943L6.20604 12.2211L6 11.5ZM9.5 10.5L10.2211 10.706L10.592 9.40798L9.29396 9.77886L9.5 10.5ZM8.5 14L7.77886 13.794L7.5057 14.75L8.5 14.75L8.5 14ZM10.5 14L11.2276 14.1819L11.4606 13.25L10.5 13.25L10.5 14ZM5.25 9.5V11.5H6.75V9.5H5.25ZM6.20604 12.2211L9.70604 11.2211L9.29396 9.77886L5.79396 10.7789L6.20604 12.2211ZM8.77886 10.294L7.77886 13.794L9.22114 14.206L10.2211 10.706L8.77886 10.294ZM8.5 14.75L10.5 14.75L10.5 13.25L8.5 13.25L8.5 14.75ZM2.1819 11.2276L6.1819 10.2276L5.8181 8.77239L1.8181 9.77239L2.1819 11.2276ZM9.77239 13.8181L8.77239 17.8181L10.2276 18.1819L11.2276 14.1819L9.77239 13.8181ZM18 18L18 19.5L21.6213 19.5L19.0607 16.9393L18 18ZM15.5 15.5L14.1344 14.8793L13.7043 15.8256L14.4393 16.5607L15.5 15.5ZM18 10L19.3655 10.6207L20.055 9.10387L18.4743 8.57697L18 10ZM15 9L13.6195 8.41341L12.9839 9.90912L14.5257 10.423L15 9ZM17.9552 2.04476L19.3358 2.63134L20.7891 -0.789134L17.3687 0.664208L17.9552 2.04476ZM11 5L9.57697 5.47433L10.0909 7.01607L11.5866 6.38055L11 5ZM10 2L11.4231 1.52567L10.8962 -0.0550239L9.37933 0.634449L10 2ZM4.5 4.5L3.43936 5.56068L4.17439 6.29569L5.1207 5.86555L4.5 4.5ZM2 2.00009L3.06064 0.939408L0.499999 -1.62115L0.5 2.00009L2 2.00009ZM2 10.5H3.5H2ZM2 18H0.500003V19.5H2V18ZM9.5 18V19.5H9.5L9.5 18ZM19.0607 16.9393L16.5607 14.4393L14.4393 16.5607L16.9393 19.0606L19.0607 16.9393ZM16.8656 16.1207L19.3655 10.6207L16.6344 9.3793L14.1344 14.8793L16.8656 16.1207ZM18.4743 8.57697L15.4743 7.57697L14.5257 10.423L17.5257 11.423L18.4743 8.57697ZM16.3805 9.58659L19.3358 2.63134L16.5747 1.45817L13.6195 8.41341L16.3805 9.58659ZM17.3687 0.664208L10.4134 3.61945L11.5866 6.38055L18.5418 3.42531L17.3687 0.664208ZM12.423 4.52567L11.4231 1.52567L8.577 2.47433L9.57697 5.47433L12.423 4.52567ZM9.37933 0.634449L3.8793 3.13445L5.1207 5.86555L10.6207 3.36555L9.37933 0.634449ZM5.56064 3.43932L3.06064 0.939408L0.939358 3.06076L3.43936 5.56068L5.56064 3.43932ZM0.5 2.00009L0.500003 10.5H3.5L3.5 2.00009L0.5 2.00009ZM0.500003 10.5V18H3.5V10.5H0.500003ZM2 19.5H9.5V16.5H2V19.5ZM9.5 19.5L18 19.5L18 16.5L9.5 16.5L9.5 19.5Z" fill="#6C707E" mask="url(#path-1-inside-1_11156_8563)"/>
</svg>
